<svg xmlns="http://www.w3.org/2000/svg" viewBox="-115 -142 461.4 567.46">
  <!-- Generator: Adobe Illustrator 30.0.0, SVG Export Plug-In . SVG Version: 2.1.1 Build 123)  -->
  <defs>
    <style>
      .st0 {
        fill: #1d1d1b;
      }
    </style>
  </defs>
  <path class="st0" d="M169.38,181.76c-.73-17.73,10.77-20.48,18.93-4.16,6.75-3.31,18.29-4.43,17.53,4.39.1,10.2-26.77,23.17-32.7,22.29-5.54-.63-2.69-20.7-3.77-22.52Z"/>
  <path class="st0" d="M55.02,47.4c.51,2.08,1.16,4.32,1.93,6.71.77,2.39,1.44,4.84,1.99,7.34.56,2.5.91,4.98,1.06,7.44.15,2.46-.1,4.77-.74,6.92-.69,2.15-1.49,3.73-2.41,4.74-.92,1.01-1.88,1.51-2.86,1.51s-1.96-.49-2.92-1.46c-.96-.97-1.83-2.36-2.6-4.16-1.33-3.19-2.52-6.52-3.57-9.99-1.05-3.47-2.02-6.99-2.92-10.57-.9-3.57-1.78-7.2-2.64-10.88-.86-3.68-1.76-7.32-2.7-10.93l-.19,3.33c-.17,2.15-.35,4.42-.55,6.82-.19,2.39-.51,4.74-.96,7.03-.45,2.29-1.07,4.37-1.86,6.25-.79,1.87-1.85,3.37-3.18,4.48-1.11.9-2.16,1.29-3.15,1.15-.99-.14-1.92-.62-2.8-1.46-.88-.83-1.69-1.94-2.44-3.33-.75-1.39-1.45-2.92-2.09-4.58.26,2.99.43,5.48.51,7.5,0,.83.03,1.89.1,3.18.06,1.29.02,2.57-.13,3.85-.15,1.29-.47,2.41-.96,3.38-.49.97-1.32,1.56-2.47,1.77-.86.14-1.55-.05-2.09-.57-.54-.52-.98-1.23-1.32-2.13-.34-.9-.61-1.93-.8-3.07s-.35-2.24-.48-3.28c-.51-3.4-.91-6.85-1.19-10.36-.28-3.5-.53-6.99-.74-10.46-.21-3.47-.43-6.96-.64-10.46-.21-3.5-.49-6.99-.84-10.46-.13-1.46-.22-2.86-.29-4.22s-.02-2.62.13-3.8c.15-1.18.46-2.27.93-3.28.47-1.01,1.18-1.93,2.12-2.76.99-.83,1.85-1.2,2.6-1.09.75.1,1.44.5,2.06,1.2.62.69,1.19,1.61,1.7,2.76.51,1.15,1.01,2.31,1.48,3.49,1.07,2.71,2.12,5.41,3.15,8.12,1.03,2.71,2.1,5.38,3.21,8.02.21-3.47.52-6.91.93-10.31.41-3.4.99-6.51,1.74-9.32.75-2.81,1.72-5.22,2.92-7.24,1.2-2.01,2.72-3.33,4.56-3.96,1.46-.48,2.73-.24,3.82.73,1.09.97,2.06,2.33,2.89,4.06.84,1.74,1.57,3.66,2.22,5.78.64,2.12,1.22,4.01,1.74,5.67,1.58,5.07,3.07,10.19,4.47,15.36,1.39,5.17,2.82,10.36,4.27,15.56Z"/>
  <path class="st0" d="M103.32,28.35c-.54-2.71-1.51-5.21-2.92-7.5-1.29-2.15-2.79-3.89-4.5-5.21-1.71-1.32-3.5-2.31-5.37-2.97-1.86-.66-3.77-1.04-5.72-1.15-1.95-.1-3.78-.05-5.5.16-1.41.28-2.84.61-4.27.99-1.44.38-2.82.97-4.15,1.77-1.33.8-2.57,1.82-3.73,3.07-1.16,1.25-2.14,2.85-2.96,4.79-.77,1.87-1.22,3.64-1.35,5.31-1.24,2.92-2.24,6.02-2.99,9.32-.75,3.3-1.18,6.61-1.29,9.94-.11,3.33.13,6.61.71,9.84.58,3.23,1.62,6.23,3.12,9.01,1.67,3.12,3.6,5.35,5.79,6.66,2.19,1.32,4.47,1.94,6.85,1.87,2.38-.07,4.79-.73,7.23-1.98,2.44-1.25,4.78-2.88,7.01-4.89,2.23-2.01,4.27-4.3,6.14-6.87,1.86-2.57,3.4-5.21,4.6-7.91,1.07-2.36,1.96-4.91,2.67-7.65.71-2.74,1.12-5.52,1.25-8.33.13-2.81-.08-5.57-.61-8.28ZM91.02,45.43c-.9,1.81-2.04,3.38-3.41,4.74-1.37,1.35-2.81,2.48-4.31,3.38-1.5.9-2.7,1.49-3.6,1.77-1.37.35-2.68.42-3.92.21-1.24-.21-2.37-.75-3.37-1.61-1.01-.87-1.85-2.1-2.54-3.7-.69-1.6-1.14-3.61-1.35-6.04-.26-2.78-.15-5.59.32-8.43.94-.55,1.82-1.6,2.64-3.12.68-.21,1.6-.42,2.73-.62,1.14-.21,2.26-.38,3.37-.52,1.11-.14,2.1-.24,2.96-.31.86-.07,1.37-.1,1.54-.1.81.14,1.76.38,2.83.73,1.07.35,2.1.85,3.09,1.51.99.66,1.85,1.51,2.6,2.55.75,1.04,1.21,2.33,1.38,3.85.26,2.01-.06,3.92-.96,5.73Z"/>
  <path class="st0" d="M150.6,60.21c-.73-2.57-1.69-4.96-2.89-7.18-1.2-2.22-2.55-4.25-4.05-6.09-1.5-1.84-2.91-3.38-4.24-4.63h.06c1.2-1.53,2.31-3.23,3.34-5.1,1.2-2.15,2.16-4.51,2.89-7.08.73-2.57,1.12-5.12,1.19-7.65.06-2.53-.28-4.95-1.03-7.24-.75-2.29-2.02-4.27-3.82-5.93-1.67-1.53-3.53-2.65-5.56-3.38-2.04-.73-4.11-1.2-6.24-1.41-2.12-.21-4.23-.21-6.33,0-2.1.21-4.07.49-5.91.83-.64.14-1.55.35-2.73.62-1.18.28-2.44.68-3.79,1.2-1.35.52-2.68,1.18-3.99,1.98-1.31.8-2.43,1.77-3.37,2.92-.94,1.15-1.58,2.5-1.93,4.06-.34,1.56-.21,3.35.39,5.36.6,2.01,1.4,3.09,2.41,3.23,1.01.14,2-.28,2.99-1.25.47,6.73,1.13,13.38,1.99,19.94.86,6.56,1.74,13.14,2.64,19.73.17,1.25.35,2.65.55,4.22.19,1.56.47,3.05.84,4.48.36,1.42.85,2.65,1.45,3.7.6,1.04,1.39,1.63,2.38,1.77.73.14,1.42-.05,2.09-.57.66-.52,1.26-1.21,1.8-2.08.54-.87,1-1.84,1.38-2.92.39-1.08.64-2.1.77-3.07.34-2.29.32-4.74-.06-7.34-.39-2.6-.86-5.15-1.41-7.65,3,1.6,5.92,3.47,8.77,5.62,2.85,2.15,5.37,5.03,7.55,8.64.51.9,1.05,1.94,1.61,3.12.56,1.18,1.16,2.29,1.8,3.33.64,1.04,1.33,1.87,2.06,2.5.73.62,1.54.8,2.44.52.64-.21,1.23-.62,1.77-1.25.54-.62,1.01-1.37,1.41-2.24.41-.87.75-1.79,1.03-2.76.28-.97.46-1.94.55-2.92.21-2.78-.04-5.45-.77-8.02ZM135.23,29.13c-.6.8-1.26,1.53-1.99,2.19-.73.66-1.47,1.22-2.22,1.67-.75.45-1.4.78-1.96.99-.47-.07-1.15-.28-2.02-.62-.88-.35-1.82-.64-2.83-.88-1.01-.24-2-.35-2.99-.31-.99.04-1.82.36-2.51.99l-1.93-13.22c1.76-.07,3.47,0,5.14.21,1.67.21,3.23.45,4.69.73.81.14,1.7.3,2.67.47.96.17,1.91.43,2.83.78.92.35,1.78.89,2.57,1.61.79.73,1.42,1.72,1.9,2.97-.3.83-.75,1.65-1.35,2.45Z"/>
  <path class="st0" d="M197.59,47.3c1.11.42,1.87,1.08,2.28,1.98.41.9.57,1.93.48,3.07-.09,1.15-.36,2.36-.84,3.64-.47,1.29-1.01,2.52-1.61,3.7-.6,1.18-1.22,2.26-1.86,3.23-.64.97-1.18,1.7-1.61,2.19-1.29,1.46-2.82,3-4.6,4.63-1.78,1.63-3.68,3.12-5.69,4.48-2.01,1.35-4.07,2.43-6.17,3.23-2.1.8-4.11,1.11-6.04.94-1.93-.17-3.7-.97-5.3-2.39-1.61-1.42-2.92-3.7-3.95-6.82-.34-1.04-.73-2.51-1.16-4.42-.43-1.91-.86-4.11-1.29-6.61-.21.14-.41.26-.58.36-.17.1-.36.23-.58.36-.86.56-1.6.69-2.22.42-.62-.28-1.11-.82-1.48-1.61-.36-.8-.58-1.77-.64-2.92s.07-2.27.42-3.38c.34-1.11.81-2.08,1.41-2.92.6-.83,1.26-1.6,1.99-2.29-.34-3.19-.58-6.38-.71-9.58-.13-3.19-.11-6.25.06-9.16-.64.42-1.29.88-1.93,1.41-.64.52-1.29,1.06-1.93,1.61-.99.83-1.92,1.22-2.8,1.15-.88-.07-1.58-.48-2.12-1.25-.54-.76-.86-1.82-.96-3.18-.11-1.35.16-2.86.8-4.53.47-1.32,1.13-2.5,1.96-3.54.84-1.04,1.72-2.01,2.67-2.92.94-.9,1.91-1.7,2.89-2.39.99-.69,1.89-1.32,2.7-1.87,1.97-1.46,4.05-2.74,6.24-3.85,2.19-1.11,4.4-1.99,6.65-2.65,2.25-.66,4.51-1.04,6.78-1.15,2.27-.1,4.48.19,6.62.88.81.28,1.65.61,2.51.99.86.38,1.58.9,2.19,1.56.6.66,1.02,1.53,1.25,2.6.24,1.08.18,2.45-.16,4.11-.6,2.64-1.54,4.39-2.83,5.26-1.29.87-2.7,1.37-4.24,1.51-2.96.28-5.82.49-8.58.62-2.76.14-5.5.56-8.2,1.25.13,1.81.17,3.78.13,5.93-.04,2.15-.02,3.96.06,5.41l.39,4.37c1.29-1.04,2.64-2.05,4.05-3.02,1.41-.97,2.84-1.82,4.27-2.55,1.44-.73,2.85-1.25,4.24-1.56,1.39-.31,2.73-.33,4.02-.05,1.33.28,2.21.76,2.64,1.46.43.69.56,1.51.39,2.45-.17.94-.55,1.93-1.12,2.97-.58,1.04-1.24,2.03-1.99,2.97-.75.94-1.5,1.77-2.25,2.5-.75.73-1.34,1.23-1.77,1.51-1.8,1.25-3.6,2.41-5.4,3.49-1.8,1.08-3.6,2.13-5.4,3.18.81,4.16,2,6.77,3.57,7.81,1.56,1.04,3.76.76,6.59-.83,3.04-1.73,5.91-3.71,8.61-5.93.6-.48,1.27-1.11,2.02-1.87.75-.76,1.53-1.49,2.35-2.19.81-.69,1.63-1.23,2.44-1.61.81-.38,1.58-.43,2.31-.16Z"/>
  <path class="st0" d="M52.32,111.99c-.34-2.12-1.48-4.12-3.41-6-1.63-1.58-3.55-2.62-5.75-3.14-2.21-.51-4.45-.83-6.72-.96.73-.97,1.42-1.97,2.09-3,.66-1.03,1.27-2.12,1.83-3.28,1.41-2.85,2.07-5.44,1.96-7.78-.11-2.33-.7-4.32-1.77-5.96-1.07-1.64-2.5-2.91-4.27-3.82-1.78-.91-3.65-1.36-5.62-1.36-1.8,0-3.74.18-5.82.55-2.08.36-4.17.97-6.27,1.82-.6-.55-1.35-.74-2.25-.59-.9.15-1.82.83-2.76,2.05-.43.61-.84,1.27-1.22,2-1.97,1.52-3.62,3.25-4.95,5.19-.6.91-1.02,1.97-1.25,3.18-.24,1.21-.26,2.34-.06,3.37.19,1.03.6,1.88,1.22,2.55.62.67,1.49.94,2.6.82h.39c.09,2.24.25,4.47.48,6.69.24,2.21.46,4.29.67,6.23-.34,2.06-.21,3.67.39,4.82.09,2.06.18,4.69.29,7.87.11,3.18.35,6.29.74,9.33-.73.67-1.38,1.47-1.96,2.41-.58.94-.98,1.93-1.19,2.96-.39,2-.38,3.56.03,4.69.41,1.12,1.08,1.88,2.02,2.27.94.39,2.11.51,3.5.36,1.39-.15,2.86-.49,4.4-1,1.54-.52,3.11-1.14,4.69-1.87,1.58-.73,3.05-1.44,4.4-2.14,1.35-.7,2.53-1.35,3.54-1.96,1.01-.61,1.72-1.03,2.15-1.27.99-.61,2.3-1.52,3.95-2.73,1.65-1.21,3.34-2.65,5.08-4.32,1.74-1.67,3.35-3.5,4.85-5.5,1.5-2,2.62-4.05,3.37-6.14.75-2.09.95-4.2.61-6.32ZM19.99,96.98c-.34-1.76-.62-3.49-.84-5.19.73-.3,1.47-.59,2.22-.86.75-.27,1.51-.5,2.28-.68.9-.18,1.83-.33,2.8-.45.96-.12,1.9-.09,2.8.09.21.06.61.26,1.19.59.58.33,1.1.62,1.57.86-.64.67-1.38,1.43-2.22,2.27-.84.85-1.64,1.68-2.41,2.5-.77.82-1.46,1.53-2.06,2.14-.6.61-.96.97-1.09,1.09-.51.36-1.07.7-1.67,1-.6.3-1.22.61-1.86.91-.13-1.09-.36-2.52-.71-4.28ZM36.73,121.45c-1.44.91-2.91,1.71-4.44,2.41-1.52.7-3.08,1.32-4.66,1.87-1.59.55-3.17,1.12-4.76,1.73l.13-.09c-.09-1.33-.16-2.53-.23-3.59-.06-1.06-.14-1.89-.22-2.5l-.39-3.82c1.71-.12,3.42-.21,5.11-.27,1.69-.06,3.4-.03,5.11.09.43,0,1.02-.01,1.77-.05.75-.03,1.54-.03,2.38,0,.84.03,1.64.11,2.41.23.77.12,1.37.36,1.8.73-1.24,1.27-2.58,2.37-4.02,3.28Z"/>
  <path class="st0" d="M98.6,115.9c1.11.36,1.87.94,2.28,1.73.41.79.57,1.68.48,2.68-.09,1-.36,2.06-.84,3.18-.47,1.12-1.01,2.2-1.61,3.23-.6,1.03-1.22,1.97-1.86,2.82-.64.85-1.18,1.49-1.61,1.91-1.29,1.27-2.82,2.62-4.6,4.05-1.78,1.43-3.68,2.73-5.69,3.91-2.01,1.18-4.07,2.12-6.17,2.82-2.1.7-4.11.97-6.04.82-1.93-.15-3.7-.85-5.3-2.09-1.61-1.24-2.92-3.23-3.95-5.96-.34-.91-.73-2.2-1.16-3.87-.43-1.67-.86-3.59-1.29-5.78-.21.12-.41.23-.58.32-.17.09-.36.2-.58.32-.86.49-1.6.61-2.22.36-.62-.24-1.11-.71-1.48-1.41-.36-.7-.58-1.55-.64-2.55-.06-1,.07-1.99.42-2.96.34-.97.81-1.82,1.41-2.55.6-.73,1.26-1.39,1.99-2-.34-2.79-.58-5.58-.71-8.37-.13-2.79-.11-5.46.06-8.01-.64.36-1.29.77-1.93,1.23-.64.45-1.29.93-1.93,1.41-.99.73-1.92,1.06-2.8,1-.88-.06-1.58-.42-2.12-1.09-.54-.67-.86-1.59-.96-2.77-.11-1.18.16-2.5.8-3.96.47-1.15,1.12-2.18,1.96-3.09s1.72-1.76,2.67-2.55c.94-.79,1.91-1.49,2.89-2.09.99-.61,1.89-1.15,2.7-1.64,1.97-1.27,4.05-2.4,6.24-3.37,2.19-.97,4.4-1.74,6.65-2.32,2.25-.58,4.51-.91,6.78-1,2.27-.09,4.48.17,6.62.77.81.24,1.65.53,2.51.86.86.33,1.58.79,2.19,1.36.6.58,1.02,1.33,1.25,2.27.23.94.18,2.14-.16,3.59-.6,2.31-1.54,3.84-2.83,4.59-1.29.76-2.7,1.2-4.24,1.32-2.96.24-5.82.43-8.58.55-2.76.12-5.5.49-8.2,1.09.13,1.58.17,3.31.13,5.19-.04,1.88-.02,3.46.06,4.73l.39,3.82c1.29-.91,2.64-1.79,4.05-2.64,1.41-.85,2.84-1.59,4.27-2.23,1.44-.64,2.85-1.09,4.24-1.36,1.39-.27,2.73-.29,4.02-.05,1.33.24,2.21.67,2.64,1.27.43.61.56,1.32.39,2.14-.17.82-.55,1.68-1.12,2.59-.58.91-1.24,1.77-1.99,2.59-.75.82-1.5,1.55-2.25,2.18-.75.64-1.34,1.08-1.77,1.32-1.8,1.09-3.6,2.11-5.4,3.05-1.8.94-3.6,1.87-5.4,2.77.81,3.64,2,5.91,3.57,6.82,1.56.91,3.76.67,6.59-.73,3.04-1.52,5.91-3.24,8.61-5.19.6-.42,1.27-.97,2.02-1.64.75-.67,1.53-1.3,2.35-1.91.81-.61,1.63-1.08,2.44-1.41.81-.33,1.58-.38,2.31-.14Z"/>
  <path class="st0" d="M143.27,131.24c-.21-1.67-.46-3.23-.74-4.69-.28-1.46-.53-2.64-.74-3.55.47-1.03.66-2.09.58-3.18-.09-1.09-.67-2.15-1.74-3.18l-.19-.27c-.47-2.12-.95-4.26-1.45-6.41-.49-2.15-1-4.29-1.51-6.41-.39-1.64-.76-3.35-1.12-5.14-.36-1.79-.74-3.58-1.13-5.37-.39-1.79-.81-3.55-1.29-5.28-.47-1.73-1.01-3.35-1.61-4.87.09-.36.15-.73.19-1.09.04-.36.09-.73.13-1.09.21-1.82.05-3.17-.48-4.05-.54-.88-1.23-1.38-2.09-1.5-.86-.12-1.75.14-2.67.77-.92.64-1.66,1.56-2.22,2.78l-.58,1.09c-.64.79-1.11,1.85-1.41,3.18-2.61,6.13-5.04,12.39-7.26,18.79-2.23,6.4-4.41,12.84-6.56,19.33-.47,1.4-1.01,2.88-1.61,4.46-.6,1.58-1.18,3.18-1.74,4.82-.56,1.64-1.05,3.29-1.48,4.96-.43,1.67-.71,3.29-.84,4.87-.13,1.94.05,3.38.55,4.32.49.94,1.13,1.47,1.93,1.59.79.12,1.65-.14,2.57-.77.92-.64,1.72-1.56,2.41-2.77.56-.97,1.06-2.02,1.51-3.14.45-1.12.87-2.29,1.25-3.5,3.21-.67,6.38-1.55,9.51-2.64,3.13-1.09,6.24-2.21,9.32-3.37.26,1.21.52,2.7.8,4.46.28,1.76.63,3.46,1.06,5.1.43,1.64.97,3.03,1.64,4.19.66,1.15,1.51,1.73,2.54,1.73,1.24,0,2.22-.42,2.92-1.27.71-.85,1.2-1.96,1.48-3.32.28-1.36.41-2.88.39-4.55-.02-1.67-.14-3.34-.35-5ZM123.32,119.18c-2.08,1.03-3.8,1.79-5.17,2.27.99-3.09,1.99-6.16,3.02-9.19,1.03-3.03,2.1-6.06,3.21-9.1.21-.67.46-1.33.74-2,.28-.67.57-1.33.87-2l3.79,17.29c-2.23.79-4.38,1.7-6.46,2.73Z"/>
  <path class="st0" d="M193.47,123.91c.21.79.3,1.59.26,2.41-.04.82-.17,1.64-.39,2.46-.21.82-.5,1.58-.87,2.27-.36.7-.74,1.29-1.13,1.77-1.41,1.82-3.11,3.31-5.08,4.46-1.97,1.15-4.03,2.03-6.17,2.64-2.14.61-4.31.99-6.49,1.14-2.19.15-4.18.14-5.98-.05-2.7-.3-5.29-1.14-7.78-2.5-2.49-1.36-4.72-3.14-6.72-5.32s-3.69-4.73-5.08-7.64c-1.39-2.91-2.34-6.02-2.83-9.33-.49-3.31-.48-6.75.03-10.33.51-3.58,1.67-7.19,3.47-10.83,1.16-2.3,2.51-4.35,4.05-6.14,1.54-1.79,3.2-3.26,4.98-4.41,1.78-1.15,3.65-1.96,5.62-2.41,1.97-.45,3.94-.47,5.91-.05,1.58.36,3.19,1.02,4.82,1.96,1.63.94,3.09,2.17,4.37,3.68,1.29,1.52,2.32,3.31,3.12,5.37.79,2.06,1.17,4.37,1.13,6.91,0,.97-.15,1.97-.45,3-.3,1.03-.7,1.96-1.19,2.77-.49.82-1.07,1.46-1.74,1.91-.66.45-1.38.62-2.15.5-.73-.12-1.29-.45-1.67-1-.39-.55-.7-1.17-.93-1.87-.24-.7-.46-1.46-.68-2.27-.21-.82-.51-1.56-.9-2.23-.77-1.33-1.7-2.41-2.8-3.23-1.09-.82-2.25-1.36-3.47-1.64s-2.45-.29-3.7-.05c-1.24.24-2.4.73-3.47,1.46.26-.12-.02.15-.84.82-.13.24-.33.55-.61.91-.28.36-.4.52-.35.45-.43.79-.79,1.61-1.09,2.46-.56,1.46-.79,3.05-.71,4.78.09,1.73.39,3.41.9,5.05s1.19,3.17,2.02,4.59c.84,1.43,1.77,2.62,2.8,3.59,1.89,1.82,3.81,3,5.79,3.55,1.97.55,3.97.73,6.01.55,2.03-.18,4.08-.58,6.14-1.18,2.06-.61,4.09-1.15,6.11-1.64.64-.18,1.35-.35,2.12-.5.77-.15,1.52-.18,2.25-.09.73.09,1.39.36,1.99.82.6.45,1.05,1.26,1.35,2.41Z"/>
  <path class="st0" d="M230.75,119.54c.17,1.52.32,3.12.45,4.82.13,1.7.19,3.37.19,5,0,2.31-.17,4.49-.52,6.55-.17.91-.46,1.9-.87,2.96-.41,1.06-.92,2.03-1.52,2.91-.6.88-1.27,1.61-2,2.18-.73.58-1.51.86-2.33.86-.95,0-1.73-.3-2.36-.91-.62-.61-1.11-1.39-1.45-2.37-.35-.97-.59-2.08-.74-3.32-.15-1.24-.23-2.53-.23-3.87,0-1.21.02-2.38.06-3.5.04-1.12.09-2.17.13-3.14,0-.36,0-.59.03-.68.02-.09.03-.15.03-.18v-.41c-2.27,1.21-4.48,2.23-6.62,3.05-2.14.82-4.31,1.65-6.49,2.5-.56,1.27-1.25,2.31-2.09,3.09-.84.79-1.73,1.18-2.67,1.18-1.29,0-2.44-.83-3.47-2.5-1.03-1.67-1.54-3.81-1.54-6.41l-.58-9.55c-.21-3.46-.42-6.94-.61-10.46-.19-3.52-.29-7.04-.29-10.55v-1.55c0-1.82.02-3.68.06-5.6.04-1.91.25-3.67.61-5.28.36-1.61.92-2.93,1.67-3.96.75-1.03,1.83-1.55,3.25-1.55,1.2,0,2.14.49,2.83,1.46.68.97,1.22,2.2,1.61,3.68.39,1.49.65,3.12.8,4.91.15,1.79.27,3.53.35,5.23.04.67.07,1.33.1,2,.02.67.07,1.27.16,1.82l.64,5.91c.21,1.82.43,3.53.64,5.14.21,1.61.36,3.44.45,5.5,3.64-1.64,7.22-2.76,10.73-3.37l-.84-8.83s.03-.3-.03-.91c-.06-.61-.12-1.15-.16-1.64-.04-.91-.1-1.94-.16-3.09-.06-1.15-.15-2.26-.26-3.32-.11-1.06-.23-1.99-.35-2.77-.13-.79-.28-1.24-.45-1.36-1.2-.85-1.8-2.09-1.8-3.73,0-.79.18-1.59.55-2.41.36-.82.81-1.55,1.35-2.18.54-.64,1.14-1.17,1.8-1.59.66-.42,1.3-.64,1.9-.64,1.08,0,2,.45,2.78,1.36.78.91,1.43,2.05,1.97,3.41s.98,2.84,1.32,4.41c.34,1.58.62,3.03.84,4.37.09.3.13.62.13.96s.04.65.13.96c.69,3.58,1.25,7.13,1.68,10.64.43,3.52.69,6.98.78,10.37l.39,4.37Z"/>
  <path class="st0" d="M53.99,157.03c-1.18-2.33-3.16-4.25-5.95-5.76-3.04-1.58-6.28-2.41-9.71-2.51-3.43-.1-6.87.3-10.32,1.18-3.45.89-6.82,2.17-10.12,3.84-3.3,1.67-6.34,3.53-9.13,5.57-.43.33-1.05.89-1.86,1.67-.81.79-1.66,1.72-2.54,2.81-.88,1.08-1.7,2.25-2.47,3.5-.77,1.25-1.32,2.45-1.64,3.6-.32,1.15-.34,2.22-.06,3.2.28.98,1.02,1.77,2.22,2.36.51.26,1.03.31,1.54.15.51-.16,1.02-.44,1.51-.84.49-.39.95-.89,1.38-1.48.43-.59.79-1.25,1.09-1.97.99-.72,2.04-1.3,3.15-1.72,1.11-.43,2.1-.87,2.96-1.33.81-.39,1.62-.79,2.41-1.18.79-.39,1.6-.75,2.41-1.08.51,3.35,1.17,6.6,1.96,9.75.79,3.15,1.57,6.34,2.35,9.56.9,3.74,1.58,7.44,2.06,11.08.47,3.64.94,7.37,1.41,11.18-.34,1.71-.27,3.24.23,4.58.49,1.35,1.64,2.09,3.44,2.22,1.54.13,2.76-.31,3.66-1.33.9-1.02,1.54-2.35,1.93-3.99.39-1.64.58-3.48.58-5.52s-.09-4.07-.26-6.11c1.11-.66,2.13-1.35,3.05-2.07.92-.72,1.68-1.35,2.28-1.87,1.5-1.31,3.09-3.09,4.76-5.32,1.67-2.23,3.21-4.71,4.63-7.44,1.41-2.72,2.58-5.57,3.5-8.52.92-2.96,1.37-5.81,1.35-8.57-.02-2.76-.62-5.3-1.8-7.63ZM41.62,173.73c-.9,1.12-1.81,2.13-2.73,3.05-.92.92-1.86,1.79-2.83,2.61-.96.82-1.96,1.66-2.99,2.51-.39-1.51-.78-3-1.19-4.48-.41-1.48-.83-2.97-1.25-4.48-.34-1.12-.65-2.36-.93-3.74-.28-1.38-.57-2.82-.87-4.33,1.33-.2,2.75-.34,4.27-.44,1.52-.1,3-.02,4.44.25,1.44.26,2.76.79,3.99,1.58,1.22.79,2.17,1.97,2.86,3.55-.94,1.51-1.86,2.82-2.76,3.94Z"/>
  <path class="st0" d="M99.81,170.08c-.54-2.56-1.51-4.93-2.92-7.09-1.29-2.03-2.79-3.68-4.5-4.93-1.71-1.25-3.5-2.18-5.37-2.81-1.86-.62-3.77-.99-5.72-1.08-1.95-.1-3.78-.05-5.5.15-1.41.26-2.84.58-4.27.94-1.44.36-2.82.92-4.15,1.67-1.33.76-2.57,1.72-3.73,2.91-1.16,1.18-2.14,2.69-2.96,4.53-.77,1.77-1.22,3.45-1.35,5.02-1.24,2.76-2.24,5.7-2.99,8.82-.75,3.12-1.18,6.26-1.29,9.41-.11,3.15.13,6.26.71,9.31.58,3.05,1.62,5.9,3.12,8.52,1.67,2.96,3.6,5.06,5.79,6.3,2.19,1.25,4.47,1.84,6.85,1.77,2.38-.06,4.79-.69,7.23-1.87,2.44-1.18,4.78-2.72,7.01-4.63,2.23-1.9,4.27-4.07,6.14-6.5,1.86-2.43,3.4-4.93,4.6-7.49,1.07-2.23,1.96-4.65,2.67-7.24.71-2.59,1.12-5.22,1.25-7.88.13-2.66-.08-5.27-.61-7.83ZM87.5,186.24c-.9,1.71-2.04,3.2-3.41,4.48-1.37,1.28-2.81,2.35-4.31,3.2-1.5.85-2.7,1.41-3.6,1.67-1.37.33-2.68.39-3.92.2-1.24-.2-2.37-.71-3.37-1.53-1.01-.82-1.85-1.99-2.54-3.5-.69-1.51-1.14-3.41-1.35-5.71-.26-2.63-.15-5.29.32-7.98.94-.52,1.82-1.51,2.64-2.96.69-.2,1.6-.39,2.73-.59,1.14-.2,2.26-.36,3.37-.49,1.11-.13,2.1-.23,2.96-.3.86-.06,1.37-.1,1.54-.1.81.13,1.76.36,2.83.69,1.07.33,2.1.81,3.09,1.43.99.62,1.85,1.43,2.6,2.41.75.99,1.21,2.2,1.38,3.64.26,1.91-.06,3.71-.96,5.42Z"/>
  <path class="st0" d="M148.82,200.23c-.73-2.43-1.69-4.69-2.89-6.8-1.2-2.1-2.55-4.02-4.05-5.76-1.5-1.74-2.91-3.2-4.24-4.38h.06c1.2-1.44,2.31-3.05,3.34-4.83,1.2-2.03,2.16-4.27,2.89-6.7.73-2.43,1.12-4.84,1.19-7.24.06-2.4-.28-4.68-1.03-6.85-.75-2.17-2.02-4.04-3.82-5.62-1.67-1.44-3.53-2.51-5.56-3.2-2.04-.69-4.11-1.13-6.24-1.33-2.12-.2-4.23-.2-6.33,0-2.1.2-4.07.46-5.91.79-.64.13-1.55.33-2.73.59-1.18.26-2.44.64-3.79,1.13-1.35.49-2.68,1.12-3.99,1.87-1.31.76-2.43,1.67-3.37,2.76-.94,1.08-1.58,2.36-1.93,3.84-.34,1.48-.21,3.17.39,5.07.6,1.91,1.4,2.92,2.41,3.05,1.01.13,2-.26,2.99-1.18.47,6.37,1.13,12.66,1.99,18.87.86,6.21,1.74,12.43,2.64,18.67.17,1.18.35,2.51.55,3.99.19,1.48.47,2.89.84,4.24.36,1.35.85,2.51,1.45,3.5.6.99,1.39,1.54,2.38,1.67.73.13,1.42-.05,2.09-.54.66-.49,1.26-1.15,1.8-1.97.54-.82,1-1.74,1.38-2.76.39-1.02.64-1.99.77-2.91.34-2.17.32-4.48-.06-6.95-.39-2.46-.86-4.88-1.41-7.24,3,1.51,5.92,3.28,8.77,5.32,2.85,2.04,5.37,4.76,7.55,8.18.51.85,1.05,1.84,1.61,2.96.56,1.12,1.16,2.17,1.8,3.15.64.99,1.33,1.77,2.06,2.36.73.59,1.54.76,2.44.49.64-.2,1.23-.59,1.77-1.18.54-.59,1.01-1.3,1.41-2.12.41-.82.75-1.69,1.03-2.61.28-.92.46-1.84.55-2.76.21-2.63-.04-5.15-.77-7.59ZM133.45,170.82c-.6.76-1.26,1.45-1.99,2.07-.73.63-1.47,1.15-2.22,1.58-.75.43-1.4.74-1.96.94-.47-.06-1.15-.26-2.02-.59-.88-.33-1.82-.61-2.83-.84-1.01-.23-2-.33-2.99-.3-.99.03-1.82.34-2.51.94l-1.93-12.51c1.76-.06,3.47,0,5.14.2,1.67.2,3.23.43,4.69.69.81.13,1.7.28,2.67.44.96.16,1.91.41,2.83.74.92.33,1.78.84,2.57,1.53.79.69,1.42,1.63,1.9,2.81-.3.79-.75,1.56-1.35,2.31Z"/>
  <path class="st0" d="M51.55,220.23c1.5.12,2.68.6,3.54,1.45.86.85,1.29,1.95,1.29,3.29,0,1.46-.51,2.98-1.54,4.56-.69,1.05-1.51,1.84-2.47,2.37s-1.98.91-3.05,1.14c-1.07.23-2.15.37-3.25.39-1.09.03-2.11.1-3.05.22-4.46.53-8.91,1.23-13.37,2.11.34,1.81.73,3.61,1.16,5.4.43,1.79.88,3.59,1.35,5.4,1.71-.64,3.44-1.2,5.17-1.67,1.74-.47,3.4-.7,4.98-.7,2.23,0,3.8.43,4.72,1.27.92.85,1.38,1.86,1.38,3.03,0,1.81-.45,3.34-1.35,4.56-.9,1.23-2,2.25-3.31,3.07-1.31.82-2.7,1.48-4.18,1.98-1.48.5-2.8.86-3.95,1.1.47,1.7.93,3.47,1.38,5.31.45,1.84.67,3.61.67,5.31,0,.82-.13,1.7-.39,2.63-.26.94-.62,1.8-1.09,2.59-.47.79-1.05,1.45-1.74,1.98-.69.53-1.46.79-2.31.79s-1.65-.53-2.38-1.58c-.73-1.05-1.4-2.38-2.02-3.99-.62-1.61-1.18-3.35-1.67-5.22-.49-1.87-.95-3.66-1.38-5.35-.6.18-1.23.37-1.9.57-.66.21-1.3.31-1.9.31-.99,0-1.74-.45-2.25-1.36-.51-.91-.77-1.94-.77-3.12,0-2.05.47-3.63,1.41-4.74.94-1.11,1.95-1.93,3.02-2.46-.39-2.16-.75-4.32-1.09-6.45-.34-2.14-.66-4.23-.96-6.28l-10.03,2.11c-.21.06-.49.09-.84.09-1.07,0-1.83-.44-2.28-1.32-.45-.88-.67-1.9-.67-3.07,0-2.28.49-4.1,1.48-5.44.99-1.35,2.21-2.38,3.66-3.12,1.46-.73,3.02-1.27,4.69-1.62,1.67-.35,3.19-.67,4.56-.97.56-.99,1.2-1.74,1.93-2.24.73-.5,1.39-.75,1.99-.75.81,0,1.58.44,2.31,1.32,3.09-.82,6.23-1.59,9.45-2.33,3.21-.73,6.38-1.1,9.51-1.1,1.89,0,3.73.18,5.53.53Z"/>
  <path class="st0" d="M93.46,269.08c-.21-1.61-.46-3.12-.74-4.52-.28-1.4-.53-2.55-.74-3.42.47-.99.66-2.02.58-3.07-.09-1.05-.66-2.08-1.74-3.07l-.19-.26c-.47-2.05-.95-4.11-1.45-6.19-.49-2.08-1-4.14-1.51-6.19-.39-1.58-.76-3.23-1.12-4.96-.36-1.73-.74-3.45-1.12-5.18-.39-1.73-.81-3.42-1.29-5.09-.47-1.67-1.01-3.23-1.61-4.7.09-.35.15-.7.19-1.05.04-.35.09-.7.13-1.05.21-1.76.05-3.06-.48-3.91-.54-.85-1.23-1.33-2.09-1.45-.86-.12-1.75.13-2.67.75-.92.61-1.66,1.51-2.22,2.68l-.58,1.05c-.64.76-1.11,1.79-1.41,3.07-2.61,5.91-5.04,11.95-7.26,18.13-2.23,6.18-4.41,12.39-6.56,18.65-.47,1.35-1.01,2.78-1.61,4.3-.6,1.52-1.18,3.07-1.74,4.65-.56,1.58-1.05,3.18-1.48,4.78-.43,1.61-.71,3.18-.84,4.7-.13,1.87.05,3.26.55,4.17.49.91,1.13,1.42,1.93,1.54.79.12,1.65-.13,2.57-.75.92-.61,1.72-1.51,2.41-2.68.56-.94,1.06-1.94,1.51-3.03.45-1.08.87-2.21,1.25-3.38,3.21-.64,6.38-1.49,9.51-2.55,3.13-1.05,6.23-2.14,9.32-3.25.26,1.17.52,2.6.8,4.3.28,1.7.63,3.34,1.06,4.92.43,1.58.97,2.93,1.64,4.04.66,1.11,1.51,1.67,2.54,1.67,1.24,0,2.22-.41,2.92-1.23.71-.82,1.2-1.89,1.48-3.2.28-1.32.41-2.78.39-4.39-.02-1.61-.14-3.22-.35-4.83ZM73.5,257.45c-2.08,1-3.8,1.73-5.17,2.19.99-2.98,1.99-5.94,3.02-8.87,1.03-2.93,2.1-5.85,3.21-8.78.21-.64.46-1.29.74-1.93.28-.64.57-1.29.87-1.93l3.79,16.68c-2.23.76-4.38,1.64-6.46,2.63Z"/>
  <path class="st0" d="M121.61,223.04c1.5-.94,2.71-1.21,3.63-.83.92.38,1.63,1.22,2.12,2.5.49,1.29.79,2.93.9,4.92.11,1.99.1,4.13-.03,6.41s-.34,4.62-.64,7.02c-.3,2.4-.63,4.64-1,6.72-.36,2.08-.72,3.89-1.06,5.44-.34,1.55-.62,2.62-.84,3.2-.51,1.64-1.1,3.38-1.77,5.22-.67,1.84-1.44,3.6-2.31,5.27-.88,1.67-1.86,3.16-2.96,4.48-1.09,1.32-2.33,2.27-3.7,2.85-1.67.7-3.11.75-4.31.13-1.2-.61-2.25-1.58-3.15-2.9-.9-1.32-1.66-2.88-2.28-4.7-.62-1.81-1.15-3.6-1.57-5.35-1.07-4.15-2.01-8.4-2.83-12.73-.81-4.33-1.29-8.69-1.41-13.08-.04-.99-.03-1.99.03-2.98.06-.99.22-1.93.45-2.81s.59-1.67,1.06-2.37c.47-.7,1.09-1.26,1.86-1.67,1.24-.64,2.34-.66,3.28-.04.94.61,1.58,1.77,1.93,3.47.13.76.09,1.58-.13,2.46.26,1.7.59,3.76,1,6.19.41,2.43.87,4.93,1.38,7.51.51,2.58,1.07,5.03,1.67,7.37.6,2.34,1.22,4.24,1.86,5.71.43-.94.86-1.86,1.29-2.77.43-.91.75-1.8.96-2.68.51-1.87.93-3.77,1.25-5.71.32-1.93.57-3.89.74-5.88.13-1.7.17-3.54.13-5.53-.04-1.99.03-3.94.22-5.84.19-1.9.59-3.66,1.19-5.27.6-1.61,1.61-2.85,3.02-3.73Z"/>
  <path class="st0" d="M173.97,238.31c-.54-2.28-1.51-4.39-2.92-6.32-1.29-1.81-2.79-3.28-4.5-4.39-1.71-1.11-3.5-1.94-5.37-2.5-1.86-.56-3.77-.88-5.72-.97-1.95-.09-3.78-.04-5.5.13-1.41.23-2.84.51-4.27.83-1.44.32-2.82.82-4.15,1.49-1.33.67-2.57,1.54-3.73,2.59-1.16,1.05-2.14,2.4-2.96,4.04-.77,1.58-1.22,3.07-1.35,4.48-1.24,2.46-2.24,5.08-2.99,7.86-.75,2.78-1.18,5.57-1.29,8.38-.11,2.81.13,5.57.71,8.3.58,2.72,1.62,5.25,3.12,7.59,1.67,2.63,3.6,4.51,5.79,5.62,2.19,1.11,4.47,1.64,6.85,1.58,2.38-.06,4.79-.61,7.23-1.67,2.44-1.05,4.78-2.43,7.01-4.13,2.23-1.7,4.27-3.63,6.14-5.79,1.86-2.16,3.4-4.39,4.6-6.67,1.07-1.99,1.96-4.14,2.67-6.45.71-2.31,1.13-4.65,1.25-7.02.13-2.37-.08-4.7-.61-6.98ZM161.66,252.71c-.9,1.52-2.04,2.85-3.41,3.99-1.37,1.14-2.81,2.09-4.31,2.85-1.5.76-2.7,1.26-3.6,1.49-1.37.29-2.68.35-3.92.18-1.24-.18-2.37-.63-3.37-1.36-1.01-.73-1.85-1.77-2.54-3.12-.69-1.35-1.14-3.04-1.35-5.09-.26-2.34-.15-4.71.32-7.11.94-.47,1.82-1.35,2.64-2.63.68-.18,1.6-.35,2.73-.53,1.13-.18,2.26-.32,3.37-.44,1.11-.12,2.1-.2,2.96-.26.86-.06,1.37-.09,1.54-.09.81.12,1.76.32,2.83.61,1.07.29,2.1.72,3.09,1.27.99.56,1.85,1.27,2.6,2.15.75.88,1.21,1.96,1.38,3.25.26,1.7-.06,3.31-.96,4.83Z"/>
  <path class="st0" d="M222.97,264.91c-.73-2.16-1.69-4.18-2.89-6.06-1.2-1.87-2.55-3.58-4.05-5.14-1.5-1.55-2.91-2.85-4.24-3.91h.06c1.2-1.29,2.31-2.72,3.34-4.3,1.2-1.81,2.16-3.8,2.89-5.97.73-2.16,1.12-4.32,1.19-6.45.06-2.14-.28-4.17-1.03-6.1-.75-1.93-2.02-3.6-3.82-5-1.67-1.29-3.53-2.24-5.56-2.85-2.04-.61-4.11-1.01-6.24-1.19-2.12-.18-4.23-.18-6.33,0-2.1.18-4.07.41-5.91.7-.64.12-1.55.29-2.73.53-1.18.23-2.44.57-3.79,1.01-1.35.44-2.68,1-3.99,1.67-1.31.67-2.43,1.49-3.37,2.46-.94.97-1.58,2.11-1.93,3.42-.34,1.32-.21,2.82.39,4.52.6,1.7,1.4,2.6,2.41,2.72,1.01.12,2-.23,2.99-1.05.47,5.68,1.13,11.28,1.99,16.81.86,5.53,1.74,11.08,2.64,16.64.17,1.05.35,2.24.55,3.56.19,1.32.47,2.58.84,3.77.36,1.2.85,2.24,1.45,3.12.6.88,1.39,1.38,2.38,1.49.73.12,1.42-.04,2.09-.48.66-.44,1.26-1.02,1.8-1.76.54-.73,1-1.55,1.38-2.46.39-.91.64-1.77.77-2.59.34-1.93.32-3.99-.06-6.19-.39-2.19-.86-4.35-1.41-6.45,3,1.35,5.92,2.93,8.77,4.74,2.85,1.81,5.37,4.24,7.55,7.29.51.76,1.05,1.64,1.61,2.63.56,1,1.16,1.93,1.8,2.81.64.88,1.33,1.58,2.06,2.11.73.53,1.54.67,2.44.44.64-.18,1.23-.53,1.77-1.05.54-.53,1.01-1.15,1.41-1.89.41-.73.75-1.51,1.03-2.33.28-.82.46-1.64.55-2.46.21-2.34-.04-4.59-.77-6.76ZM207.61,238.7c-.6.67-1.26,1.29-1.99,1.84-.73.56-1.47,1.02-2.22,1.4-.75.38-1.4.66-1.96.83-.47-.06-1.15-.23-2.02-.53-.88-.29-1.82-.54-2.83-.75-1.01-.2-2-.29-2.99-.26-.99.03-1.82.31-2.51.83l-1.93-11.15c1.76-.06,3.47,0,5.14.18,1.67.18,3.23.38,4.69.61.81.12,1.7.25,2.67.39.96.15,1.91.37,2.83.66.92.29,1.78.75,2.57,1.36.79.61,1.42,1.45,1.9,2.5-.3.7-.75,1.39-1.35,2.06Z"/>
  <g>
    <path class="st0" d="M188.7,151.26c.56.47.9.96,1.02,1.48.12.52.09,1.05-.08,1.57-.18.52-.47,1.03-.87,1.51s-.86.94-1.36,1.35c-.5.41-1,.77-1.5,1.07-.5.3-.94.52-1.32.67-.4.15-.83.29-1.29.41-.46.12-.93.21-1.41.25-.48.04-.95.04-1.41-.02s-.89-.2-1.29-.41c-.35-.18-.64-.43-.87-.75-.23-.32-.39-.67-.46-1.05-.08-.38-.07-.76.02-1.15.09-.39.28-.73.57-1.04.27-.28.5-.46.71-.54.21-.08.4-.09.58-.03.18.06.35.16.52.31.16.15.33.3.5.46.17.16.35.31.54.44.19.13.4.22.63.26.32.05.62.06.9.03.28-.03.56-.09.84-.16.27-.08.54-.17.8-.28.26-.11.53-.22.81-.34.07-.04.17-.1.28-.17.12-.08.24-.16.36-.26.13-.1.25-.19.35-.28.11-.09.18-.17.22-.23-.28-.24-.59-.43-.94-.57-.35-.14-.71-.23-1.09-.3-.38-.06-.78-.1-1.18-.12-.41-.01-.8-.03-1.19-.04-.34-.01-.75,0-1.24.04-.49.04-.97.05-1.47.02-.49-.03-.96-.11-1.39-.24-.44-.14-.78-.38-1.02-.73-.32-.44-.46-.86-.42-1.27.04-.41.19-.79.46-1.14.27-.35.64-.69,1.1-.99.46-.31.97-.59,1.52-.86.55-.26,1.12-.5,1.71-.71.59-.21,1.15-.4,1.68-.56.53-.16,1.01-.29,1.43-.4.42-.1.73-.17.94-.21.3-.06.5-.03.59.11s.12.3.09.5c-.03.2-.1.4-.21.61-.11.21-.22.35-.33.44-.32.26-.7.46-1.14.61-.44.15-.85.31-1.23.49-.36.17-.73.34-1.09.51-.36.17-.72.35-1.07.53.44.01.87.01,1.31,0,.44-.01.87-.01,1.31,0,.4,0,.83.01,1.28.04.46.03.91.08,1.36.16.45.08.88.19,1.3.35.42.16.8.37,1.14.64Z"/>
    <path class="st0" d="M201.89,155.53c.23.41.29.82.19,1.23s-.3.76-.59,1.07c-.29.31-.64.54-1.05.69-.41.15-.8.18-1.19.08-.53-.14-1.04-.33-1.53-.56s-1-.4-1.55-.5c-.17-.03-.39-.05-.66-.09-.27-.03-.56-.04-.85-.03-.29.01-.56.06-.81.13-.25.08-.43.21-.54.41-.22.17-.46.31-.73.43-.27.12-.53.18-.79.18s-.5-.07-.72-.21c-.22-.14-.38-.39-.47-.73-.1-.32-.09-.65.03-.97.12-.33.27-.65.47-.95.2-.31.42-.6.66-.87.24-.27.46-.51.64-.73l.82-1c-.24-.23-.49-.46-.74-.69-.25-.23-.5-.46-.76-.68-.21-.18-.47-.39-.79-.63-.32-.24-.64-.49-.96-.76-.32-.27-.59-.55-.83-.84s-.37-.58-.39-.88c-.04-.36.02-.67.16-.92.15-.25.34-.45.58-.61.24-.15.51-.26.81-.33.3-.06.58-.09.85-.08.22.03.39.1.5.23.12.13.19.28.23.46.64.45,1.27.92,1.88,1.41.61.49,1.22.98,1.84,1.47.46-.5.93-.98,1.41-1.45.48-.46.98-.88,1.5-1.25.18-.13.41-.27.67-.42.27-.15.53-.26.8-.32.27-.06.52-.04.75.04.23.08.41.29.53.63.1.27.1.56,0,.86-.09.3-.23.6-.4.89-.18.29-.37.56-.58.82-.21.26-.4.48-.56.66-.24.3-.49.58-.73.86-.24.28-.49.56-.73.84l1.09.93c.17.14.38.3.62.46.24.17.49.35.73.54.24.19.47.39.68.59.21.2.37.4.48.61Z"/>
    <path class="st0" d="M215.77,153.62c.15.39.33.8.55,1.24.22.44.41.9.56,1.36.16.46.26.92.3,1.38.04.46-.03.88-.21,1.28-.19.4-.42.69-.68.88-.26.19-.53.28-.81.28s-.56-.09-.83-.27c-.27-.18-.52-.44-.74-.77-.38-.59-.71-1.21-1.01-1.85-.3-.64-.57-1.3-.83-1.96-.26-.66-.5-1.33-.75-2.02-.24-.68-.5-1.36-.77-2.03l-.05.62c-.05.4-.1.82-.15,1.26-.05.44-.15.88-.27,1.3-.13.42-.3.81-.53,1.16-.22.35-.53.62-.9.83-.32.17-.61.24-.89.21-.28-.03-.54-.12-.79-.27-.25-.15-.48-.36-.69-.62-.21-.26-.41-.54-.59-.85.07.55.12,1.02.15,1.39,0,.15,0,.35.03.59.02.24,0,.48-.04.71-.04.24-.13.45-.27.63-.14.18-.37.29-.7.33-.24.03-.44,0-.59-.11-.15-.1-.28-.23-.37-.4-.1-.17-.17-.36-.23-.57-.05-.21-.1-.41-.14-.61-.15-.63-.26-1.27-.34-1.92-.08-.65-.15-1.3-.21-1.94-.06-.64-.12-1.29-.18-1.94-.06-.65-.14-1.3-.24-1.94-.04-.27-.06-.53-.08-.78-.02-.25,0-.49.04-.7.04-.22.13-.42.26-.61.13-.19.33-.36.6-.51.28-.15.52-.22.74-.2.21.02.41.09.58.22.18.13.34.3.48.51.15.21.29.43.42.65.3.5.6,1,.89,1.5.29.5.59,1,.91,1.49.06-.64.15-1.28.26-1.91.12-.63.28-1.21.49-1.73s.49-.97.83-1.34c.34-.37.77-.62,1.29-.73.41-.09.77-.04,1.08.14.31.18.58.43.82.75.24.32.45.68.63,1.07.18.39.35.74.49,1.05.45.94.87,1.89,1.27,2.85.39.96.8,1.92,1.21,2.88Z"/>
  </g>
</svg>
