<svg xmlns="http://www.w3.org/2000/svg" viewBox="0 0 283.46 283.46">
  <rect width="283.46" height="283.46" rx="48" fill="#1D1D1F"/>
  <g fill="#FFFFFF">
    <path d="M81.27,54.16h-5.48l-.97,2.51h-4.94l6.3-14.42h4.78l6.3,14.42h-5.03l-.97-2.51ZM79.93,50.65l-1.4-3.63-1.4,3.63h2.8Z"/>
    <path d="M96.93,46.02h-4.22v-3.77h13.31v3.77h-4.22v10.65h-4.86v-10.65Z"/>
    <path d="M125.72,53v3.67h-11.99v-14.42h11.73v3.67h-6.94v1.69h6.1v3.5h-6.1v1.9h7.21Z"/>
    <path d="M134.06,42.25h4.86v10.65h6.51v3.77h-11.38v-14.42Z"/>
    <path d="M153.24,42.25h4.86v14.42h-4.86v-14.42Z"/>
    <path d="M178.91,53v3.67h-11.99v-14.42h11.73v3.67h-6.94v1.69h6.1v3.5h-6.1v1.9h7.21Z"/>
    <path d="M193.43,53.04h-1.32v3.63h-4.86v-14.42h6.94c4.02,0,6.57,2.1,6.57,5.44,0,2.08-.99,3.65-2.72,4.53l3.03,4.45h-5.19l-2.45-3.63ZM193.88,46h-1.77v3.38h1.77c1.34,0,1.98-.64,1.98-1.69s-.64-1.69-1.98-1.69Z"/>
    <path d="M187.85,114.63h33.12c.82,0,1.48.66,1.48,1.48v34.05c0,.82-.66,1.48-1.48,1.48h-73.22c-.82,0-1.48-.66-1.48-1.48v-76.52c0-.82.66-1.48,1.48-1.48h37.15c.82,0,1.48.66,1.48,1.48v39.51c0,.82.66,1.48,1.48,1.48Z"/>
    <path d="M141.24,238.96l41.28-77.18c.58-1.05,2.09-1.05,2.67,0l41.39,77.18c.56,1.02-.18,2.26-1.34,2.26h-82.67c-1.16,0-1.89-1.24-1.34-2.26Z"/>
    <path d="M101.44,161.74h-2.56l.48,79.48h1.16c20.68,0,38.61-15.44,40.49-36.03,2.14-23.57-16.43-43.44-39.57-43.44Z"/>
    <path d="M95.36,161.74h-32.71c-.82,0-1.48.66-1.48,1.48v76.52c0,.82.66,1.48,1.48,1.48h32.26l.45-79.48Z"/>
    <path d="M140.12,108.5c-1.61-20.24-18-36.63-38.24-38.24-25.72-2.04-47.09,19.32-45.05,45.04,1.6,20.24,18,36.64,38.24,38.25.12,0,.23,0,.34.02l.23-39.79v-.05l-11.32,11.07s-1.19-11.25,6.13-12.84h-13s4.12-7.32,14.54-4.85l-7.67-7.67s11.86-1.72,12.82,6.62c1.07-8.9,12.54-6.48,12.54-6.48l-7.92,8.04c8.81-3.63,14.91,4.33,14.91,4.33h-13.05c4.85,1.4,6.01,6.08,6.2,9.41.14,2.05-.12,3.59-.12,3.59l-3.54-3.59-7.55-7.62.24,39.91c24-.2,43.23-20.71,41.29-45.17Z"/>
  </g>
</svg>
